<svg width="32" height="32" viewBox="0 0 32 32" fill="none" xmlns="http://www.w3.org/2000/svg">
<rect width="32" height="32" fill="black"/>
<path d="M3 4C3 3.44772 3.44772 3 4 3H8.58579C9.47669 3 9.92286 4.07714 9.29289 4.70711L4.70711 9.29289C4.07714 9.92286 3 9.47669 3 8.58579V4Z" fill="white"/>
<path d="M29 28C29 28.5523 28.5523 29 28 29L23.4142 29C22.5233 29 22.0771 27.9229 22.7071 27.2929L27.2929 22.7071C27.9229 22.0771 29 22.5233 29 23.4142L29 28Z" fill="white"/>
<path d="M28 3C28.5523 3 29 3.44772 29 4L29 8.58579C29 9.47669 27.9229 9.92286 27.2929 9.29289L22.7071 4.7071C22.0771 4.07714 22.5233 3 23.4142 3L28 3Z" fill="white"/>
<path d="M4 29C3.44772 29 3 28.5523 3 28L3 23.4142C3 22.5233 4.07714 22.0771 4.70711 22.7071L9.2929 27.2929C9.92286 27.9229 9.47669 29 8.58579 29L4 29Z" fill="white"/>
</svg>
